<svg width="118" height="32" viewBox="0 0 118 32" fill="none" xmlns="http://www.w3.org/2000/svg">
<g clip-path="url(#clip0_1023_13660)">
<path d="M2.96238 18.6069C0.656814 12.4521 -0.00103313 10.5897 1.21736e-06 10.2191C1.21736e-06 9.48199 0.410639 8.63873 1.01573 8.13173C1.70151 7.55707 1.89804 7.59975 2.28902 8.40553C2.83826 9.53925 3.54783 9.29564 3.31923 8.05157C3.0865 6.7898 3.61092 6.55244 4.2036 7.64972C4.83456 8.81571 5.50792 8.58563 5.27623 7.28431C5.05384 6.03712 5.6548 5.81329 6.14922 6.95846C6.64777 8.11195 7.57973 7.72259 7.17426 6.53058C6.77707 5.36355 7.54456 5.10433 8.09587 6.21826C8.69993 7.43839 9.4188 7.04799 9.10332 5.67171C8.93886 4.95337 8.99679 4.81283 9.45914 4.81283C9.66705 4.81283 9.76014 4.92422 10.0011 5.46349C10.5266 6.63885 11.3303 6.36713 11.0582 5.10537C10.8648 4.21214 10.9455 4.08513 11.7492 4.01121C12.5343 3.93938 13.2769 4.21422 13.8489 4.78993C14.4385 5.38229 20.2743 20.8077 20.2722 21.7707C20.2691 23.5707 18.6452 24.873 18.0091 23.5852C17.4598 22.4744 16.7234 22.7253 16.9551 23.9454C17.1857 25.1583 16.6675 25.3571 16.078 24.2807C15.4956 23.2157 14.7581 23.4666 14.9971 24.6482C15.2381 25.8391 14.6805 26.1036 14.1551 25.0469C13.8355 24.4066 13.6855 24.3036 13.3028 24.4681C12.9832 24.6055 12.9511 24.8095 13.1321 25.5487C13.4052 26.6709 12.7939 26.8573 12.2571 25.8162C11.6561 24.6513 10.929 24.8761 11.1638 26.1535C11.3882 27.3695 10.809 27.6433 10.3063 26.5585C9.78496 25.431 8.92852 25.8121 9.27503 27.0176C9.43432 27.5715 9.43432 27.635 9.28227 27.788C9.17573 27.8942 8.88611 27.9691 8.48789 27.992C7.98829 28.0212 7.74626 27.9754 7.29528 27.7693C6.19059 27.2633 6.25472 27.3997 2.96238 18.6069ZM15.8794 22.1736C15.9673 21.8248 11.9726 11.1102 11.6892 10.9311C11.4234 10.7646 10.7821 10.9311 10.5628 11.2237C10.4107 11.4256 10.5256 11.7702 12.4557 16.8975C13.5862 19.8988 14.574 22.4369 14.6505 22.5369C14.7281 22.6368 14.8957 22.7191 15.0239 22.718C15.388 22.717 15.8111 22.4484 15.8794 22.1736ZM8.44548 16.6882C6.805 12.3678 6.84534 12.4344 6.09853 12.7665C5.47068 13.0455 5.50689 13.2142 7.09875 17.4305C7.87452 19.4845 8.5727 21.2335 8.65028 21.3168C8.74027 21.4146 8.92542 21.4552 9.15918 21.4292C10.1977 21.3147 10.1946 21.2959 8.44548 16.6882ZM11.3779 17.0838C11.3779 16.8319 9.05471 10.5085 8.83026 10.1483C8.57477 9.73809 7.60765 9.9109 7.4887 10.3877C7.45147 10.5376 7.889 11.8337 8.7382 14.0845C9.45707 15.9917 10.0891 17.5898 10.1428 17.6366C10.1966 17.6835 10.4035 17.722 10.6021 17.722C11.0169 17.722 11.3779 17.4242 11.3779 17.0838Z" fill="#2CC295"/>
<path d="M33.1325 24V11.86H28.4725V9.6H40.2025V11.86H35.5425V24H33.1325ZM41.0014 11.56V9.35H43.4114V11.56H41.0014ZM41.0014 24V13.2H43.4114V24H41.0014ZM50.0968 24.3C48.9835 24.3 48.0335 24.0533 47.2468 23.56C46.4602 23.06 45.8568 22.38 45.4368 21.52C45.0235 20.66 44.8135 19.6867 44.8068 18.6C44.8135 17.4933 45.0302 16.5133 45.4568 15.66C45.8902 14.8 46.5035 14.1267 47.2968 13.64C48.0902 13.1467 49.0335 12.9 50.1268 12.9C51.3535 12.9 52.3902 13.21 53.2368 13.83C54.0902 14.4433 54.6468 15.2833 54.9068 16.35L52.5068 17C52.3202 16.42 52.0102 15.97 51.5768 15.65C51.1435 15.3233 50.6502 15.16 50.0968 15.16C49.4702 15.16 48.9535 15.31 48.5468 15.61C48.1402 15.9033 47.8402 16.31 47.6468 16.83C47.4535 17.35 47.3568 17.94 47.3568 18.6C47.3568 19.6267 47.5868 20.4567 48.0468 21.09C48.5068 21.7233 49.1902 22.04 50.0968 22.04C50.7368 22.04 51.2402 21.8933 51.6068 21.6C51.9802 21.3067 52.2602 20.8833 52.4468 20.33L54.9068 20.88C54.5735 21.98 53.9902 22.8267 53.1568 23.42C52.3235 24.0067 51.3035 24.3 50.0968 24.3ZM55.8907 24L55.9107 9.6H58.3507V18.4L62.3007 13.2H65.3107L61.1207 18.6L65.6707 24H62.4807L58.3507 18.8V24H55.8907ZM70.3871 24.3C69.2938 24.3 68.3338 24.0633 67.5071 23.59C66.6805 23.1167 66.0338 22.46 65.5671 21.62C65.1071 20.78 64.8771 19.8133 64.8771 18.72C64.8771 17.54 65.1038 16.5167 65.5571 15.65C66.0105 14.7767 66.6405 14.1 67.4471 13.62C68.2538 13.14 69.1871 12.9 70.2471 12.9C71.3671 12.9 72.3171 13.1633 73.0971 13.69C73.8838 14.21 74.4671 14.9467 74.8471 15.9C75.2271 16.8533 75.3705 17.9767 75.2771 19.27H72.8871V18.39C72.8805 17.2167 72.6738 16.36 72.2671 15.82C71.8605 15.28 71.2205 15.01 70.3471 15.01C69.3605 15.01 68.6271 15.3167 68.1471 15.93C67.6671 16.5367 67.4271 17.4267 67.4271 18.6C67.4271 19.6933 67.6671 20.54 68.1471 21.14C68.6271 21.74 69.3271 22.04 70.2471 22.04C70.8405 22.04 71.3505 21.91 71.7771 21.65C72.2105 21.3833 72.5438 21 72.7771 20.5L75.1571 21.22C74.7438 22.1933 74.1038 22.95 73.2371 23.49C72.3771 24.03 71.4271 24.3 70.3871 24.3ZM66.6671 19.27V17.45H74.0971V19.27H66.6671ZM82.8384 24C82.1251 24.1333 81.4251 24.19 80.7384 24.17C80.0584 24.1567 79.4484 24.0333 78.9084 23.8C78.3684 23.56 77.9584 23.1833 77.6784 22.67C77.4317 22.2033 77.3017 21.7267 77.2884 21.24C77.2751 20.7533 77.2684 20.2033 77.2684 19.59V10.2H79.6684V19.45C79.6684 19.8833 79.6717 20.2633 79.6784 20.59C79.6917 20.9167 79.7617 21.1833 79.8884 21.39C80.1284 21.79 80.5117 22.0133 81.0384 22.06C81.5651 22.1067 82.1651 22.08 82.8384 21.98V24ZM75.3084 15.09V13.2H82.8384V15.09H75.3084ZM83.1607 24L87.7007 9.6H91.2307L95.7707 24H93.2907L89.1707 11.08H89.7107L85.6407 24H83.1607ZM85.6907 20.88V18.63H93.2507V20.88H85.6907ZM100.749 24.3C99.4154 24.3 98.332 24 97.4987 23.4C96.6654 22.8 96.1587 21.9567 95.9787 20.87L98.4387 20.49C98.5654 21.0233 98.8454 21.4433 99.2787 21.75C99.712 22.0567 100.259 22.21 100.919 22.21C101.499 22.21 101.945 22.0967 102.259 21.87C102.579 21.6367 102.739 21.32 102.739 20.92C102.739 20.6733 102.679 20.4767 102.559 20.33C102.445 20.1767 102.192 20.03 101.799 19.89C101.405 19.75 100.802 19.5733 99.9887 19.36C99.082 19.12 98.362 18.8633 97.8287 18.59C97.2954 18.31 96.912 17.98 96.6787 17.6C96.4454 17.22 96.3287 16.76 96.3287 16.22C96.3287 15.5467 96.5054 14.96 96.8587 14.46C97.212 13.96 97.7054 13.5767 98.3387 13.31C98.972 13.0367 99.7187 12.9 100.579 12.9C101.419 12.9 102.162 13.03 102.809 13.29C103.462 13.55 103.989 13.92 104.389 14.4C104.789 14.88 105.035 15.4433 105.129 16.09L102.669 16.53C102.609 16.07 102.399 15.7067 102.039 15.44C101.685 15.1733 101.212 15.0233 100.619 14.99C100.052 14.9567 99.5954 15.0433 99.2487 15.25C98.902 15.45 98.7287 15.7333 98.7287 16.1C98.7287 16.3067 98.7987 16.4833 98.9387 16.63C99.0787 16.7767 99.3587 16.9233 99.7787 17.07C100.205 17.2167 100.839 17.3967 101.679 17.61C102.539 17.83 103.225 18.0833 103.739 18.37C104.259 18.65 104.632 18.9867 104.859 19.38C105.092 19.7733 105.209 20.25 105.209 20.81C105.209 21.8967 104.812 22.75 104.019 23.37C103.232 23.99 102.142 24.3 100.749 24.3ZM111.309 24.3C110.216 24.3 109.256 24.0633 108.429 23.59C107.602 23.1167 106.956 22.46 106.489 21.62C106.029 20.78 105.799 19.8133 105.799 18.72C105.799 17.54 106.026 16.5167 106.479 15.65C106.932 14.7767 107.562 14.1 108.369 13.62C109.176 13.14 110.109 12.9 111.169 12.9C112.289 12.9 113.239 13.1633 114.019 13.69C114.806 14.21 115.389 14.9467 115.769 15.9C116.149 16.8533 116.292 17.9767 116.199 19.27H113.809V18.39C113.802 17.2167 113.596 16.36 113.189 15.82C112.782 15.28 112.142 15.01 111.269 15.01C110.282 15.01 109.549 15.3167 109.069 15.93C108.589 16.5367 108.349 17.4267 108.349 18.6C108.349 19.6933 108.589 20.54 109.069 21.14C109.549 21.74 110.249 22.04 111.169 22.04C111.762 22.04 112.272 21.91 112.699 21.65C113.132 21.3833 113.466 21 113.699 20.5L116.079 21.22C115.666 22.1933 115.026 22.95 114.159 23.49C113.299 24.03 112.349 24.3 111.309 24.3ZM107.589 19.27V17.45H115.019V19.27H107.589Z" fill="#F1F7F7"/>
</g>
<defs>
<clipPath id="clip0_1023_13660">
<rect width="117.272" height="32" rx="4" fill="white"/>
</clipPath>
</defs>
</svg>
